{"title":"Missy.and.the.Maxinator.2011.DVDRiP.DivX.AC3-SiC","uid":6472793,"size":1416090084,"categoryP":"video","categoryS":"movies","magnet":"?xt=urn:btih:b05c3a202190af905c52aa7a04c0edcbe18c7441&amp;dn=Missy.and.the.Maxinator.2011.DVDRiP.DivX.AC3-SiC&amp;tr=udp%3A%2F%2Ftracker.openbittorrent.com%3A80&amp;tr=udp%3A%2F%2Fopen.demonii.com%3A1337&amp;tr=udp%3A%2F%2Ftracker.coppersurfer.tk%3A6969&amp;tr=udp%3A%2F%2Fexodus.desync.com%3A6969","seeders":0,"leechers":1,"uploader":"SAFCukO09","files":4,"time":1308207493,"description":"Max and Missy have been best friends for as long as they can remember, and now\nMax is falling in love with her. But strange things start happening to him at\nschool. He can see through walls, hear distant voices, and he suddenly has\nsuper-human strength!\n\n\n\nGeneral\nComplete name : Missy.and.the.Maxinator.2011.DVDRiP.DivX.AC3-SiC.avi\nFormat : AVI\nFormat/Info : Audio Video Interleave\nFile size : 1.31 GiB\nDuration : 1h 38mn\nOverall bit rate : 1 897 Kbps\n\nVideo\nID : 0\nFormat : MPEG-4 Visual\nFormat settings, BVOP : Yes\nFormat settings, QPel : No\nFormat settings, GMC : No warppoints\nFormat settings, Matrix : Default (H.263)\nCodec ID : DX50\nCodec ID/Hint : DivX 5\nDuration : 1h 38mn\nBit rate : 1 441 Kbps\nWidth : 720 pixels\nHeight : 400 pixels\nDisplay aspect ratio : 16:9\nFrame rate : 23.976 fps\nColor space : YUV\nChroma subsampling : 4:2:0\nBit depth : 8 bits\nScan type : Progressive\nCompression mode : Lossy\nBits/(Pixel*Frame) : 0.209\nStream size : 1 015 MiB (76%)\nWriting library : DivX 6.8.5 (UTC 2009-08-20)\n\nAudio\nID : 1\nFormat : AC-3\nFormat/Info : Audio Coding 3\nMode extension : CM (complete main)\nCodec ID : 2000\nDuration : 1h 38mn\nBit rate mode : Constant\nBit rate : 448 Kbps\nChannel(s) : 6 channels\nChannel positions : Front: L C R, Side: L R, LFE\nSampling rate : 48.0 KHz\nBit depth : 16 bits\nCompression mode : Lossy\nStream size : 316 MiB (24%)\nAlignment : Aligned on interleaves\nInterleave, duration : 64 ms (1.53 video frames)\nInterleave, preload duration : 192 ms\n\n &lt;a href=&quot;\nhttp://www.imdb.com/title/tt1362264/&quot; rel=&quot;nofollow&quot; target=&quot;_NEW&quot;&gt;\nhttp://www.imdb.com/title/tt1362264/&lt;/a&gt;\n\n\n\n\n\n &lt;a href=&quot;\nhttp://leetleech.org/images/43044362766781262356.png&quot; rel=&quot;nofollow&quot; target=&quot;_NEW&quot;&gt;\nhttp://leetleech.org/images/43044362766781262356.png&lt;/a&gt;\n &lt;a href=&quot;\nhttp://leetleech.org/images/42365376291325687616.png&quot; rel=&quot;nofollow&quot; target=&quot;_NEW&quot;&gt;\nhttp://leetleech.org/images/42365376291325687616.png&lt;/a&gt;\n &lt;a href=&quot;\nhttp://leetleech.org/images/75511225800782281151.png&quot; rel=&quot;nofollow&quot; target=&quot;_NEW&quot;&gt;\nhttp://leetleech.org/images/75511225800782281151.png&lt;/a&gt;","torrent":{"xt":"urn:btih:b05c3a202190af905c52aa7a04c0edcbe18c7441","amp;dn":"Missy.and.the.Maxinator.2011.DVDRiP.DivX.AC3-SiC","amp;tr":["udp%3A%2F%2Ftracker.openbittorrent.com%3A80","udp%3A%2F%2Fopen.demonii.com%3A1337","udp%3A%2F%2Ftracker.coppersurfer.tk%3A6969","udp%3A%2F%2Fexodus.desync.com%3A6969"],"infoHash":"b05c3a202190af905c52aa7a04c0edcbe18c7441","infoHashBuffer":{"type":"Buffer","data":[176,92,58,32,33,144,175,144,92,82,170,122,4,192,237,203,225,140,116,65]},"announce":[],"urlList":[]}}